<svg id="visual" viewBox="0 0 1920 600" width="1920" height="600" xmlns="http://www.w3.org/2000/svg" xmlns:xlink="http://www.w3.org/1999/xlink" version="1.1"><path d="M0 283L35.5 290.5C71 298 142 313 213.2 316.2C284.3 319.3 355.7 310.7 426.8 302.7C498 294.7 569 287.3 640 288.8C711 290.3 782 300.7 853.2 299C924.3 297.3 995.7 283.7 1066.8 277.8C1138 272 1209 274 1280 277.5C1351 281 1422 286 1493.2 293.2C1564.3 300.3 1635.7 309.7 1706.8 314.5C1778 319.3 1849 319.7 1884.5 319.8L1920 320L1920 601L1884.5 601C1849 601 1778 601 1706.8 601C1635.7 601 1564.3 601 1493.2 601C1422 601 1351 601 1280 601C1209 601 1138 601 1066.8 601C995.7 601 924.3 601 853.2 601C782 601 711 601 640 601C569 601 498 601 426.8 601C355.7 601 284.3 601 213.2 601C142 601 71 601 35.5 601L0 601Z" fill="#1F63DE" stroke-linecap="round" stroke-linejoin="miter"></path></svg>