<svg id="visual" viewBox="0 0 1920 600" width="1920" height="600" xmlns="http://www.w3.org/2000/svg" xmlns:xlink="http://www.w3.org/1999/xlink" version="1.1"><path d="M0 303L53.3 306.8C106.7 310.7 213.3 318.3 320 317.2C426.7 316 533.3 306 640 300.7C746.7 295.3 853.3 294.7 960 292.8C1066.7 291 1173.3 288 1280 285.7C1386.7 283.3 1493.3 281.7 1600 279.5C1706.7 277.3 1813.3 274.7 1866.7 273.3L1920 272L1920 0L1866.7 0C1813.3 0 1706.7 0 1600 0C1493.3 0 1386.7 0 1280 0C1173.3 0 1066.7 0 960 0C853.3 0 746.7 0 640 0C533.3 0 426.7 0 320 0C213.3 0 106.7 0 53.3 0L0 0Z" fill="#660099" stroke-linecap="round" stroke-linejoin="miter"></path></svg>